<svg width="50" height="50" viewBox="0 0 50 50" fill="none" xmlns="http://www.w3.org/2000/svg">
<rect width="50" height="50" fill="#3E3E3E"/>
<path fill-rule="evenodd" clip-rule="evenodd" d="M25 13C18.37 13 13 18.37 13 25C13 30.31 16.435 34.795 21.205 36.385C21.805 36.49 22.03 36.13 22.03 35.815C22.03 35.53 22.015 34.585 22.015 33.58C19 34.135 18.22 32.845 17.98 32.17C17.845 31.825 17.26 30.76 16.75 30.475C16.33 30.25 15.73 29.695 16.735 29.68C17.68 29.665 18.355 30.55 18.58 30.91C19.66 32.725 21.385 32.215 22.075 31.9C22.18 31.12 22.495 30.595 22.84 30.295C20.17 29.995 17.38 28.96 17.38 24.37C17.38 23.065 17.845 21.985 18.61 21.145C18.49 20.845 18.07 19.615 18.73 17.965C18.73 17.965 19.735 17.65 22.03 19.195C22.99 18.925 24.01 18.79 25.03 18.79C26.05 18.79 27.07 18.925 28.03 19.195C30.325 17.635 31.33 17.965 31.33 17.965C31.99 19.615 31.57 20.845 31.45 21.145C32.215 21.985 32.68 23.05 32.68 24.37C32.68 28.975 29.875 29.995 27.205 30.295C27.64 30.67 28.015 31.39 28.015 32.515C28.015 34.12 28 35.41 28 35.815C28 36.13 28.225 36.505 28.825 36.385C31.2072 35.5808 33.2773 34.0498 34.7438 32.0074C36.2103 29.9651 36.9994 27.5143 37 25C37 18.37 31.63 13 25 13Z" fill="white"/>
</svg>
